<svg xmlns="http://www.w3.org/2000/svg" width="643.376" height="584.226" viewBox="0 0 643.376 584.226">
  <g id="Grupo_4" data-name="Grupo 4" transform="translate(-505.945 -171.043)">
    <g id="Grupo_3" data-name="Grupo 3" transform="matrix(0.719, 0.695, -0.695, 0.719, 940.743, 166.85)">
      <path id="Caminho_24" data-name="Caminho 24" d="M245.306,30.752a223.638,223.638,0,0,1,26.139,21.827c11.416,12.842,14.282,9.541,20.276,26.772,8.737,25.118,19.112,65.526,10.375,91.19s-14.744,85.73-80.816,114.125S112.069,302.14,95.687,297.225s-35.493-21.3-45.868-34.4S-13.249,209.585,3.133,159.348s6.006-45.9,14.743-57.365S27.7,69.8,34.258,66.52s18.02-20.75,26.757-28.941S112.34-38.325,245.306,30.752Z" transform="translate(7.893 24.164)" fill="#b9361a"/>
      <ellipse id="Elipse_2" data-name="Elipse 2" cx="22.081" cy="17.941" rx="22.081" ry="17.941" transform="translate(92.231 87.42)" fill="#576242"/>
      <path id="Caminho_25" data-name="Caminho 25" d="M1.574,19.206S14.5,15.652,16.437,5.312s17.448-2.908,32.634,0S13.205,59.918,4.8,52.486,1.574,19.206,1.574,19.206Z" transform="translate(134.474 119.043)" fill="#e59d85"/>
      <path id="Caminho_35" data-name="Caminho 35" d="M.414,5.052s3.4-.935,3.909-3.654,4.589-.765,8.584,0S3.473,15.76,1.264,13.805.414,5.052.414,5.052Z" transform="translate(172.91 124.851)" fill="#fff"/>
      <path id="Caminho_26" data-name="Caminho 26" d="M151.661,132.128C200.248,85.641,215.843-25.439,223.527,5.3s-4.846,24.447-2.207,38.8c1.658,9.013,2.092,57.87-23.685,95.792-14.586,21.461-23.686,46.66-68.843,52.7-54.813,18.9-62.21,34.291-119.287,8.131C-37.583,175.5,103.074,178.616,151.661,132.128Z" transform="translate(78.773 110.862)" fill="#a52c13"/>
      <path id="Caminho_32" data-name="Caminho 32" d="M135.717,131.483C184.3,85,181.735-5.476,194.579.26s8.158,28.836,10.8,43.188c1.658,9.013,2.092,57.87-23.685,95.792-14.586,21.461-23.685,46.66-68.843,52.7-54.813,18.9-107.75,4.8-112.618-5.726C-5.225,174.42,87.13,177.971,135.717,131.483Z" transform="translate(108.517 128.068)" fill="#851d08"/>
      <path id="Caminho_34" data-name="Caminho 34" d="M0,4.075S3.6,3.192,3.706.951,16.079.758,31.265,3.666,23.6,38.981,15.2,31.549,0,4.075,0,4.075Z" transform="translate(97.864 147.187) rotate(77)" fill="#e59d85"/>
      <path id="Caminho_27" data-name="Caminho 27" d="M0,4.075S3.6,3.192,3.706.951,16.079.758,31.266,3.666,23.6,38.981,15.2,31.549,0,4.075,0,4.075Z" transform="translate(74.559 125.859) rotate(135)" fill="#e59d85"/>
      <path id="Caminho_28" data-name="Caminho 28" d="M0,16.058s6.736-2.384,7.746-9.321S17.7,1.787,24.638.058,14.082,35.987,9.7,31,0,16.058,0,16.058Z" transform="matrix(0.545, -0.839, 0.839, 0.545, 138.974, 80.292)" fill="#e59d85"/>
      <path id="Caminho_29" data-name="Caminho 29" d="M0,0C1.172,0,11.908,1.03,11.908,1.03L0,6.177Z" transform="translate(74.559 121.508)" fill="#a52c13"/>
      <path id="Caminho_33" data-name="Caminho 33" d="M0,0C1.172,0,11.908,1.029,11.908,1.029L0,6.177Z" transform="matrix(0.695, -0.719, 0.719, 0.695, 96.237, 140.535)" fill="#a52c13"/>
      <path id="Caminho_30" data-name="Caminho 30" d="M0,0S14.6,1.924,11.174,10.649,14.66,20.1,12.561,26.912s-10.31,7.519-10.31,7.519Z" transform="translate(127.034 136.413) rotate(-129)" fill="#a52c13"/>
      <path id="Caminho_31" data-name="Caminho 31" d="M0,0S9.609,2.532,7.246,3.534s.311,4,1.387,5.422S.694,16.967.694,16.967Z" transform="matrix(-0.899, 0.438, -0.438, -0.899, 152.001, 92.495)" fill="#a52c13"/>
      <g id="Grupo_2" data-name="Grupo 2" transform="translate(0 0)">
        <path id="Uni達o_1" data-name="Uni達o 1" d="M107.158,144.565c2.017-8.048,3.385-14.3,4.178-19.521A193.654,193.654,0,0,0,84,143.349c-31.882,19.673-35.273,33.919-37.31,35.276-10.023,1.41,6.839-36.128,20.7-44.535A215.949,215.949,0,0,0,88.6,121.249C68.913,119.2,39.143,112.7,1.5,94.358c-9.1-4.438,25.42,4.682,41.615,5.465,28.014,2.544,36.366,1.35,49.317-4.792-9.788-16.661-23.184-46.64-29.742-93.2-1.41-10.023,10.335,23.695,18.741,37.56,14.64,26.616,20.067,31.785,34.637,39.984,10.22-6.269,14.836-11.656,24.031-30.047,6.132-10.813,12.461-36.131,12.634-28.839.724,30.361-6.065,51.865-12.565,65.329,10.252,3.905,17.858,4.194,37.766.848,12.819-1.491,46.537,16.942,40.362,21.479-.839.052-3.358-1.491-8.277-3.034-6.616-2.08-17.578-4.157-34.619-2.336-17.422-.79-34.159,2.782-43.231,5.2l7.4,3.436S134.7,113.3,127.3,116.8a160.774,160.774,0,0,0-3.163,23.157c-6.564,33.536,1.188,45.118.839,47.324a2.106,2.106,0,0,1-1.725,1C116.909,188.283,104.474,157.714,107.158,144.565Zm6.3-53.11,3.406-1.2-1.9-2.036Z" transform="translate(0 5.83)" fill="#576242"/>
        <path id="Caminho_18" data-name="Caminho 18" d="M66.093,16.674S40.515-11.645,8.36,5.529C-8.071,14.3,2.135,9.789,18.173,8.312c13.237-1.23,31.9.314,35.746,19.121,1.391,6.807,8.1-3.379,7.9-3.576C61.82,23.691,66.093,16.674,66.093,16.674Z" transform="translate(64.718 88.753)" fill="#4b5735"/>
        <path id="Caminho_19" data-name="Caminho 19" d="M27.712,2.468s-.207.811-.862,3.264C24.409,14.894,12.865,56.459,3.107,65.145c-11.14,9.916,11.262,1.04,11.262,1.04S29.426,35.46,28.447,13.792,27.712,2.468,27.712,2.468Z" transform="translate(124.074 29.995)" fill="#4b5735"/>
        <path id="Caminho_20" data-name="Caminho 20" d="M.78,3.491s.207,1.148.862,4.618C4.084,21.07,15.627,79.871,25.386,92.158c11.14,14.027-11.262,1.472-11.262,1.472S-.934,50.163.046,19.51.78,3.491.78,3.491Z" transform="matrix(0.407, -0.914, 0.914, 0.407, 1.187, 101.444)" fill="#4b5735"/>
        <path id="Caminho_21" data-name="Caminho 21" d="M.78,3.491s.207,1.148.862,4.618C4.084,21.07,15.627,79.871,25.386,92.158c-.552.886-11.262,1.472-11.262,1.472S-.934,50.163.046,19.51.78,3.491.78,3.491Z" transform="matrix(0.94, -0.342, 0.342, 0.94, 62.974, 8.683)" fill="#4b5735"/>
      </g>
      <path id="Caminho_36" data-name="Caminho 36" d="M.414,5.052s3.4-.935,3.909-3.654,4.589-.765,8.584,0S3.473,15.76,1.264,13.805.414,5.052.414,5.052Z" transform="matrix(0.53, 0.848, -0.848, 0.53, 90.966, 169.279)" fill="#fff"/>
    </g>
    <path id="Caminho_37" data-name="Caminho 37" d="M779.75,532.835a223.647,223.647,0,0,1,26.139,21.827c11.416,12.842,14.282,9.541,20.275,26.772,8.737,25.118,19.112,65.526,10.375,91.19s-14.744,85.73-80.816,114.125-109.21,17.474-125.592,12.56-35.494-21.3-45.869-34.4S521.2,711.668,537.577,661.431s6.006-45.9,14.743-57.366,9.829-32.187,16.381-35.463,18.02-20.75,26.757-28.941S646.785,463.758,779.75,532.835Z" transform="translate(103.868 -192.824)" fill="#511204"/>
    <path id="Caminho_1" data-name="Caminho 1" d="M779.75,532.835a223.647,223.647,0,0,1,26.139,21.827c11.416,12.842,14.282,9.541,20.275,26.772,8.737,25.118,19.112,65.526,10.375,91.19s-14.744,85.73-80.816,114.125-109.21,17.474-125.592,12.56-35.494-21.3-45.869-34.4S521.2,711.668,537.577,661.431s6.006-45.9,14.743-57.366,9.829-32.187,16.381-35.463,18.02-20.75,26.757-28.941S646.785,463.758,779.75,532.835Z" transform="translate(79.026 -195.584)" fill="#b9361a"/>
    <ellipse id="Elipse_1" data-name="Elipse 1" cx="23" cy="18.5" rx="23" ry="18.5" transform="translate(697.005 369.981)" fill="#576242"/>
    <path id="Caminho_8" data-name="Caminho 8" d="M577.878,551.662s12.924-3.554,14.863-13.893,17.448-2.908,32.634,0-35.865,54.605-44.266,47.174S577.878,551.662,577.878,551.662Z" transform="translate(163.747 -131.08)" fill="#e59d85"/>
    <path id="Caminho_17" data-name="Caminho 17" d="M576.718,537.508s3.4-.935,3.909-3.654,4.589-.765,8.584,0-9.434,14.363-11.643,12.408S576.718,537.508,576.718,537.508Z" transform="translate(202.184 -125.271)" fill="#fff"/>
    <path id="Caminho_11" data-name="Caminho 11" d="M677.785,627.621c48.587-46.488,64.182-157.567,71.866-126.833s-4.846,24.447-2.206,38.8c1.658,9.013,2.092,57.87-23.685,95.792-14.586,21.461-23.685,46.66-68.842,52.7-54.813,18.9-62.21,34.291-119.287,8.131C488.541,671,629.2,674.109,677.785,627.621Z" transform="translate(158.226 -102.297)" fill="#a52c13"/>
    <path id="Caminho_23" data-name="Caminho 23" d="M667.618,627.209c48.587-46.487,46.018-136.959,58.862-131.223s8.158,28.836,10.8,43.188c1.657,9.013,2.092,57.87-23.685,95.792-14.586,21.462-23.685,46.66-68.842,52.7-54.813,18.9-107.75,4.8-112.618-5.725C526.675,670.146,619.031,673.7,667.618,627.209Z" transform="translate(182.195 -85.324)" fill="#851d08"/>
    <path id="Caminho_10" data-name="Caminho 10" d="M0,4.075S3.6,3.192,3.706.951,16.079.758,31.265,3.666,23.6,38.981,15.2,31.549,0,4.075,0,4.075Z" transform="translate(703.443 429.521) rotate(77)" fill="#e59d85"/>
    <path id="Caminho_12" data-name="Caminho 12" d="M0,4.075S3.6,3.192,3.706.951,16.079.758,31.265,3.666,23.6,38.981,15.2,31.549,0,4.075,0,4.075Z" transform="translate(680.137 408.193) rotate(135)" fill="#e59d85"/>
    <path id="Caminho_9" data-name="Caminho 9" d="M0,16.058s6.736-2.384,7.746-9.321S17.7,1.787,24.638.058,14.082,35.987,9.7,31,0,16.058,0,16.058Z" transform="matrix(0.545, -0.839, 0.839, 0.545, 744.552, 362.626)" fill="#e59d85"/>
    <path id="Caminho_13" data-name="Caminho 13" d="M558.6,537.35c1.172,0,11.908,1.029,11.908,1.029L558.6,543.527Z" transform="translate(121.54 -133.508)" fill="#a52c13"/>
    <path id="Caminho_14" data-name="Caminho 14" d="M0,0C1.172,0,11.908,1.03,11.908,1.03L0,6.177Z" transform="matrix(0.695, -0.719, 0.719, 0.695, 701.815, 422.869)" fill="#a52c13"/>
    <path id="Caminho_15" data-name="Caminho 15" d="M0,0S14.6,1.924,11.174,10.649,14.66,20.1,12.561,26.912s-10.31,7.519-10.31,7.519Z" transform="translate(732.612 418.747) rotate(-129)" fill="#a52c13"/>
    <path id="Caminho_16" data-name="Caminho 16" d="M0,0S9.609,2.532,7.246,3.534s.311,4,1.388,5.422S.694,16.967.694,16.967Z" transform="matrix(-0.899, 0.438, -0.438, -0.899, 757.578, 374.829)" fill="#a52c13"/>
    <g id="Grupo_1" data-name="Grupo 1" transform="translate(605.578 282.334)">
      <path id="Uni達o_1-2" data-name="Uni達o 1" d="M107.158,144.565c2.017-8.048,3.385-14.3,4.178-19.521A193.654,193.654,0,0,0,84,143.349c-31.882,19.673-35.273,33.919-37.31,35.276-10.023,1.41,6.839-36.128,20.7-44.535A215.946,215.946,0,0,0,88.6,121.249C68.913,119.2,39.143,112.7,1.5,94.358c-9.1-4.438,25.42,4.682,41.615,5.465,28.014,2.544,36.366,1.35,49.317-4.792-9.788-16.661-23.184-46.64-29.742-93.2-1.41-10.023,10.335,23.695,18.741,37.56,14.64,26.616,20.067,31.785,34.637,39.984,10.22-6.269,14.836-11.656,24.031-30.047,6.132-10.813,12.461-36.131,12.634-28.839.724,30.361-6.065,51.865-12.565,65.329,10.252,3.905,17.858,4.194,37.766.848,12.819-1.491,46.537,16.942,40.362,21.479-.839.052-3.358-1.491-8.277-3.034-6.616-2.08-17.578-4.157-34.619-2.336-17.422-.79-34.159,2.782-43.231,5.2l7.4,3.436S134.7,113.3,127.3,116.8a160.773,160.773,0,0,0-3.163,23.157c-6.564,33.536,1.188,45.118.839,47.324a2.106,2.106,0,0,1-1.725,1C116.909,188.283,104.474,157.714,107.158,144.565Zm6.3-53.11,3.406-1.2-1.9-2.036Z" transform="translate(0 5.83)" fill="#576242"/>
      <path id="Caminho_18-2" data-name="Caminho 18" d="M623.291,540.743s-25.578-28.319-57.733-11.145c-16.431,8.776-6.225,4.26,9.813,2.783,13.237-1.23,31.9.314,35.746,19.121,1.391,6.807,8.1-3.379,7.9-3.576C619.017,547.76,623.291,540.743,623.291,540.743Z" transform="translate(-492.48 -435.316)" fill="#4b5735"/>
      <path id="Caminho_19-2" data-name="Caminho 19" d="M603.221,511.4s-.207.811-.863,3.264c-2.441,9.162-13.985,50.727-23.743,59.413-11.14,9.916,11.262,1.04,11.262,1.04s15.058-30.726,14.078-52.394S603.221,511.4,603.221,511.4Z" transform="translate(-451.434 -478.939)" fill="#4b5735"/>
      <path id="Caminho_20-2" data-name="Caminho 20" d="M.78,3.491s.207,1.148.862,4.618C4.084,21.07,15.627,79.87,25.386,92.158c11.14,14.027-11.262,1.472-11.262,1.472S-.934,50.163.046,19.51.78,3.491.78,3.491Z" transform="matrix(0.407, -0.914, 0.914, 0.407, 1.187, 101.444)" fill="#4b5735"/>
      <path id="Caminho_21-2" data-name="Caminho 21" d="M.78,3.491s.207,1.148.862,4.618C4.084,21.07,15.627,79.871,25.386,92.158c-.552.886-11.262,1.472-11.262,1.472S-.934,50.163.046,19.51.78,3.491.78,3.491Z" transform="matrix(0.94, -0.342, 0.342, 0.94, 62.974, 8.683)" fill="#4b5735"/>
    </g>
    <path id="Caminho_22" data-name="Caminho 22" d="M.414,5.052s3.4-.935,3.909-3.654,4.589-.765,8.584,0S3.473,15.76,1.264,13.805.414,5.052.414,5.052Z" transform="matrix(0.53, 0.848, -0.848, 0.53, 696.544, 451.613)" fill="#fff"/>
    <path id="Caminho_39" data-name="Caminho 39" d="M107.666-152.308C101.4-150.49,95.142-142.814,90.7-138.37a109.866,109.866,0,0,0-8.282,8.484c-1.818,2.02-6.464,6.06-6.868,8.888.2.2.2.2.4.2l-2.828,3.636c-.2.2,2.02-3.03,2.02-3.03-1.01.2-2.828,4.04-2.828,4.04-5.656,7.272-11.918,13.938-17.17,21.614A236.145,236.145,0,0,0,39.794-67.67a237.48,237.48,0,0,1,9.9-28.482c1.01-2.424,12.12-28.684,12.524-28.482-.606-.2-10.5,22.018-11.11,23.23A329.835,329.835,0,0,1,66.66-134.532c-.4.808-.808,1.818-.606,1.818.808.2,4.848-7.676,4.242-7.878l-.606.4c1.212-2.222,1.818-3.434.606-6.666s-4.242-8.888-8.484-7.07c-2.626,1.01-4.848,5.858-5.858,7.878-.606,1.01-.808,2.626-1.414,3.434-.808,1.212-2.222,1.818-3.434,3.434-2.626,4.04-4.444,8.888-6.262,13.332-1.01,2.424-12.12,26.462-11.716,26.664a2.017,2.017,0,0,0,.808-1.01c-.606,1.818-1.414,3.636-2.222,5.454-.2-.2.606-1.616.4-1.616-2.02-.4-8.08,16.362-8.484,17.978A58.521,58.521,0,0,1,20.2-67.266c-1.01,2.424-2.02,4.848-2.828,7.272,0,.2-1.01,5.252-.2,3.434a4.754,4.754,0,0,1-.4,1.616,1.215,1.215,0,0,0-.2-.808c-.4.2-1.414,5.656-1.616,5.858-.808,2.02-2.02,3.838-2.828,5.858C9.494-38.38,7.878-32.118,6.464-26.058L2.222-5.454C1.414-1.616-1.818,7.07,1.212,10.908c0-.4,0-.606.2-.808a2.2,2.2,0,0,0,.2,1.01c1.818,6.666,12.726,4.646,16.362.808a1.049,1.049,0,0,0,.4.808C19.8,1.414,23.836-10.1,27.876-20.806c1.616-4.646,3.232-12.322,6.464-15.958.2-2.02,1.212-2.626,2.828-1.616a24.75,24.75,0,0,0,3.838.4,14.9,14.9,0,0,0,4.242,0c8.484-1.414,17.574-7.07,24.846-11.514,2.828-1.616,4.848-4.04,7.474-5.454,2.828-1.616,5.656-2.424,8.484-4.646a117.09,117.09,0,0,0,20-20c6.06-7.272,11.312-14.746,14.948-23.634a106.478,106.478,0,0,0,5.05-14.14c.4-1.818,1.818-4.444,1.414-6.262,0,0-.606,1.414-1.01,2.424a43.489,43.489,0,0,0,.808-10.3c.2.808.606,2.02.4,2.222.4-.2.2-2.828.2-4.04,0,.4-.2-1.414,0-.808C127.058-143.824,118.17-155.338,107.666-152.308Zm-.2,24.644c-.2.808-.2.606,0,.2-1.01,13.938-8.888,27.674-16.766,38.784A151.323,151.323,0,0,1,77.164-72.114c-2.222,2.222-4.646,4.444-7.07,6.464-1.818,1.818-5.656,3.838-7.474,6.06,1.616-1.616,5.252-3.636,6.868-4.848,3.232-2.828,6.464-6.06,9.494-9.09A151.323,151.323,0,0,0,92.516-90.092C80.194-71.71,63.226-55.752,42.824-47.268c1.616-1.01,5.656-3.03,5.656-3.232-.4-.4-8.484,3.232-9.292,3.636,2.626-5.252,5.252-10.5,8.08-15.756.808-1.212,7.272-13.534,7.272-13.534a1.031,1.031,0,0,0-1.01.808c8.888-14.342,20.6-28.684,31.512-41.814,3.434-4.04,23.432-30.1,22.422-10.706ZM8.08-23.23c2.02-8.686,6.262-14.544,8.888-22.422C13.332-33.936,8.888-22.018,5.454-10.5,6.262-14.544,7.07-19.594,8.08-23.23ZM4.04,2.626c-.2.808-1.616,1.818-1.818,2.828.606-3.434,1.212-6.464,2.02-9.7C3.838-2.02,4.444.4,4.04,2.626ZM48.48-94.738l-4.242,10.5,4.04-10.3Zm.2-.808c0,.4-.2.4-.2.606C48.48-95.142,48.48-95.142,48.682-95.546Zm.4-.808-.2.2.2-.4Zm2.626,23.836c0-.2.2-.2.2-.4A.705.705,0,0,1,51.712-72.518ZM184.83-50.3s.2.2,0-.2c-1.01-1.414-2.424-.4-3.838,0-5.858,1.212-11.918,2.626-17.978,3.636,2.222-7.272,4.444-14.948,5.252-22.422a25.089,25.089,0,0,0,0-8.686,16.66,16.66,0,0,0-2.02-5.252s-2.424-3.03-1.818-1.414l-.2-.2-.808-1.616.808.808c.2-1.212-3.232-3.434-3.232-3.434-5.05-5.05-11.918-8.888-18.786-5.05-4.242,2.424-7.676,6.464-10.5,10.5a35.573,35.573,0,0,0-2.828,4.646c-.808,1.616-2.02,6.868-3.232,7.676-1.01.808-4.04,1.01-5.454,1.818a23.714,23.714,0,0,0-5.454,3.03c-3.838,2.424-6.868,5.858-9.7,9.292-4.848,6.464-7.272,13.736-10.706,20.2-6.464,12.322.606,28.482,12.524,34.34A23.925,23.925,0,0,0,119.18-.4a26.136,26.136,0,0,0,11.514-5.252c3.03-2.222,9.7-6.262,10.908-9.7,0-.2-.4,0-1.01.606l5.858-6.868c.2.2-1.414,2.222-1.414,2.222,1.414.606,8.686-10.1,9.494-10.908,1.414-2.424,2.828-5.05,4.444-7.474,1.414-1.818,1.01-1.616,3.03-2.424-.2.2,2.424-.606,2.828-.606C167.054-41.208,190.688-42.824,184.83-50.3Zm-69.892,40.8h-.2c-16.766,2.424,2.626-33.128,3.03-35.148l-1.212,1.818c3.03-6.06,5.858-10.908,7.272-12.524,2.222,10.1,13.13,13.938,22.018,15.15C139.986-28.482,129.078-12.12,114.938-9.494Zm39.794-55.954c-1.414,5.656-2.626,13.13-5.656,18.18-1.01,2.02-.4,1.414-2.424,1.818-1.212.4-3.838,0-5.05-.2-2.222-.2-4.848-.606-6.464-2.02-2.828-2.424-2.424-6.262-2.02-9.7a42.13,42.13,0,0,1,2.626-9.9c.606-1.212,4.444-7.676,3.838-8.888-.2-.606-2.424,3.03-2.626,3.232a38.614,38.614,0,0,1,3.434-4.848c-.2,0,0-.2.2-.606v.2l.2-.4a.2.2,0,0,1,.2-.2c3.03-4.04,10.5-13.13,14.544-6.868C158.57-80.4,155.742-70.5,154.732-65.448Zm-13.938-13.13.2-.2A.2.2,0,0,1,140.794-78.578Zm142.814,30.1s.2.2,0-.2c-1.414-4.444-10.3,7.676-11.312,8.888-5.252,6.262-10.5,12.726-15.958,18.786-2.222,2.424-10.1,13.332-13.938,12.524-1.818-.4-.4-10.1-.4-10.1a4.226,4.226,0,0,0-.808,1.212c1.616-7.676,6.262-16.766,9.494-24.442,3.434-8.686,8.484-20,5.858-29.694-3.03-11.11-14.544-5.454-20-.2-2.02,2.02-18.786,23.836-18.584,25.25L222-51.914a142.694,142.694,0,0,0-8.686,14.948c2.02-7.07,4.04-14.342,6.464-21.412,1.818-4.848,4.848-9.9,6.262-14.948,1.616-6.464-4.04-15.352-11.312-14.342-5.252.606-9.7,6.666-12.322,10.908-3.232,5.252-7.07,10.1-10.3,15.15-3.838,6.262-7.07,13.13-10.3,19.594-2.828,5.252-4.242,11.312-7.272,16.16.4-2.222-.4-3.838-.4-5.858,0-1.818.808-4.04,1.212-5.858.606-2.828,2.222-5.252,2.828-8.08.4-1.414,0-2.02.4-3.434a9.326,9.326,0,0,1,1.818-3.03c1.414-2.02,3.232-3.838,4.444-5.858.2-.4.606-.808.606-1.212.808-2.828-1.212-3.838-2.222-5.252-1.01-1.212-2.02-3.838-3.636-5.252-1.212-1.01-3.232-2.222-4.646-1.616-1.818.808-1.01,1.818-1.616,2.828-.808,2.02-2.424,3.636-3.434,5.454a72.439,72.439,0,0,0-4.04,10.3c-2.424,7.07-5.252,14.342-4.848,21.816.2,5.656-1.414,10.3,2.828,15.352,2.02,2.424,9.9,7.676,11.918,4.04a10.235,10.235,0,0,0,.4-2.626c.606-2.02,2.02-3.838,2.828-5.858,2.02-4.04,3.838-8.282,6.06-12.524,5.656-10.706,9.9-21.008,16.564-31.31a94.97,94.97,0,0,1,6.868-8.888c.606-.606,3.636-4.848,4.04-4.646,3.232.2-3.232,12.524-3.838,14.746-2.626,6.868-7.272,13.938-8.08,21.21-.2,2.424.4,3.232-.2,5.454-.606,2.424-1.616,5.05-1.414,7.676a10.478,10.478,0,0,0,3.232,6.262c6.464,6.262,9.09-1.01,11.918-5.858,3.434-5.656,6.666-13.736,10.908-17.978,6.666-6.464,10.1-15.15,16.766-21.412-1.01,2.222-6.666,15.958-6.464,16.16a4.226,4.226,0,0,0,.808-1.212c-.808,2.222-1.616,4.242-2.222,6.262-.4-.2.4-1.818.2-1.818-1.212-.2-4.848,11.11-5.05,11.918a35.51,35.51,0,0,0-2.02,12.12,77.228,77.228,0,0,0,.606,11.716,23.327,23.327,0,0,0,2.222,7.272c.4,1.01,3.232,3.838,3.232,3.434.2.4.2.808.606,1.01l-.2-.2c-.4,1.616,8.08,4.444,9.494,4.242,7.07-.2,14.14-9.7,17.978-14.746,5.656-6.868,10.706-14.342,15.756-21.614C279.366-36.562,284.82-43.228,283.608-48.48ZM211.09-61.812h.2a2.906,2.906,0,0,0-.4.606c-2.424,5.05-3.636,10.908-5.656,16.362-1.616,4.04-3.636,8.888-4.04,13.332a46.313,46.313,0,0,1,2.828-14.14c1.616-4.848,4.04-9.494,6.06-14.14.808-1.616,5.656-14.14,4.848-17.372,1.212,2.828-2.424,12.322-3.636,15.352v-.2ZM351.682-50.3s.2.2,0-.2c-1.01-1.414-2.424-.4-3.838,0-5.858,1.212-11.918,2.626-17.978,3.636,2.222-7.272,4.444-14.948,5.252-22.422a25.09,25.09,0,0,0,0-8.686,16.66,16.66,0,0,0-2.02-5.252s-2.424-3.03-1.818-1.414l-.2-.2-.808-1.616.808.808c.2-1.212-3.232-3.434-3.232-3.434-5.05-5.05-11.918-8.888-18.786-5.05-4.242,2.424-7.676,6.464-10.5,10.5a35.571,35.571,0,0,0-2.828,4.646c-.808,1.616-2.02,6.868-3.232,7.676-1.01.808-4.04,1.01-5.454,1.818a23.715,23.715,0,0,0-5.454,3.03c-3.838,2.424-6.868,5.858-9.7,9.292-4.848,6.464-7.272,13.736-10.706,20.2-6.464,12.322.606,28.482,12.524,34.34A23.925,23.925,0,0,0,286.032-.4a26.136,26.136,0,0,0,11.514-5.252c3.03-2.222,9.7-6.262,10.908-9.7,0-.2-.4,0-1.01.606l5.858-6.868c.2.2-1.414,2.222-1.414,2.222,1.414.606,8.686-10.1,9.494-10.908,1.414-2.424,2.828-5.05,4.444-7.474,1.414-1.818,1.01-1.616,3.03-2.424-.2.2,2.424-.606,2.828-.606C333.906-41.208,357.54-42.824,351.682-50.3ZM281.79-9.494h-.2c-16.766,2.424,2.626-33.128,3.03-35.148l-1.212,1.818c3.03-6.06,5.858-10.908,7.272-12.524,2.222,10.1,13.13,13.938,22.018,15.15C306.838-28.482,295.93-12.12,281.79-9.494Zm39.794-55.954c-1.414,5.656-2.626,13.13-5.656,18.18-1.01,2.02-.4,1.414-2.424,1.818-1.212.4-3.838,0-5.05-.2-2.222-.2-4.848-.606-6.464-2.02-2.828-2.424-2.424-6.262-2.02-9.7a42.131,42.131,0,0,1,2.626-9.9c.606-1.212,4.444-7.676,3.838-8.888-.2-.606-2.424,3.03-2.626,3.232a38.615,38.615,0,0,1,3.434-4.848c-.2,0,0-.2.2-.606v.2l.2-.4a.2.2,0,0,1,.2-.2c3.03-4.04,10.5-13.13,14.544-6.868C325.422-80.4,322.594-70.5,321.584-65.448Zm-13.938-13.13.2-.2A.2.2,0,0,1,307.646-78.578Zm139.38,29.29v-.2c-1.212-6.666-10.3,4.444-11.514,5.454-5.858,6.464-11.312,13.534-16.564,20.6-5.252,7.272-10.3,14.544-15.756,21.816a102.64,102.64,0,0,1-8.282,10.3c-1.01,1.212-3.434,4.646-5.252,4.646-7.07,0-1.616-28.482-.808-32.926,1.212-7.878,1.818-18.382,6.868-24.644,1.212-1.616,14.948-19.19,14.948-19.19-.4-.2-2.02,1.818-3.03,3.03l8.686-11.716.606-.808h0l1.616-2.222c.2.2,0,.606-.2,1.01l1.818-2.02,5.252-6.868c3.838-5.454,7.474-11.312,10.908-16.968,5.454-9.292,12.928-22.624,8.888-33.936-3.03-8.282-14.14-9.9-21.614-7.07-5.454,2.02-10.1,6.262-13.938,10.706a89.577,89.577,0,0,0-5.858,8.484c-.606.808-3.232,7.272-3.838,8.08h.2a50.372,50.372,0,0,0-3.232,6.666c.4-1.616,1.414-4.848,2.222-5.454-1.616,1.212-3.03,7.07-3.434,7.676a335.991,335.991,0,0,0-19.19,51.51c-5.454-6.262-14.14-16.968-23.634-13.13-7.878,3.232-13.736,11.514-17.776,18.786-3.636,6.464-4.646,13.13-7.272,19.392-4.646,10.706-6.868,32.724,8.888,35.956,4.848,1.01,9.292-2.02,13.13-4.646a171.518,171.518,0,0,0,19.392-16.968c-1.01,10.706-3.232,26.866,5.454,35.35,10.706,10.908,21.412-3.838,27.876-11.918,8.282-10.5,14.746-22.22,23.028-32.32,4.04-4.848,8.08-9.7,12.322-14.14C441.168-40.2,447.632-44.238,447.026-49.288ZM372.69-35.956a3.535,3.535,0,0,0-.2,1.01c-.808,4.848-.808,9.09-4.242,12.524-3.03,3.232-6.262,6.262-9.494,9.292C355.722-10.3,348.45-2.02,343.8-2.424c-5.656-.606-1.414-13.534,1.414-21.412-3.03,8.08-7.878,21.21-1.212,21.614,1.818.2,4.848-1.414,7.474-3.636-2.424,2.222-6.464,5.252-8.888,4.04-4.646-2.02-.606-13.534.2-16.766A139.493,139.493,0,0,1,353.7-45.248c2.222-4.242,5.454-11.11,9.7-11.514l-1.01.606a.742.742,0,0,1,.606-.2c1.414-.4,2.828.606,3.838,1.414,2.626,1.818,4.242,5.252,6.06,7.878,2.02,3.232.606,6.666-.2,10.3Zm32.522-46.662a1.214,1.214,0,0,1,.2-.808v-.2a2.21,2.21,0,0,1,.4-.808v-.2c4.646-12.928,9.7-25.856,16.968-37.572,1.818-3.03,7.07-12.322,11.716-9.7,1.818,1.01,2.222,3.636,2.222,5.454.808,12.12-8.888,26.462-14.948,36.158a341.583,341.583,0,0,1-23.23,32.724l4.444-4.646,4.04-5.05-10.3,13.332-1.414,1.818-.808.808c.2-1.212,1.212-2.424,2.222-3.838a5.356,5.356,0,0,0-1.01,1.212q3.939-13.029,8.484-26.058c-.2.2,0-.2.2-1.01l.606-1.01A.742.742,0,0,1,405.212-82.618ZM388.244-66.054c-.4,1.01-1.616,5.656-2.222,6.262a.434.434,0,0,1-.4.4c1.616-2.02.606-4.646,1.414-7.07.4-1.212,2.424-3.434,2.828-5.05A14.421,14.421,0,0,1,388.244-66.054ZM356.126-10.1q7.575-6.666,14.544-13.938c-.4,2.626-6.666,7.07-8.888,9.09A106.99,106.99,0,0,1,353.1-7.272h-.2ZM391.88-84.436a41.716,41.716,0,0,1-3.03,6.868c1.01-3.03,1.616-6.06,3.03-8.888a67.669,67.669,0,0,0,3.636-7.676C394.506-90.9,392.89-87.466,391.88-84.436Zm13.13,2.424-.808,2.02a8.748,8.748,0,0,0,.2-1.01ZM361.378-55.348c-.808.606-1.414,1.414-1.616,1.414C360.166-53.934,360.772-54.742,361.378-55.348Zm5.656-.4a4.226,4.226,0,0,1,1.212.808Zm40-3.636c0-.2.2-.4.4-.606A2.5,2.5,0,0,1,407.03-59.388Zm.4-.606.2-.4A.705.705,0,0,1,407.434-59.994ZM515.1-50.3s.2.2,0-.2c-1.01-1.414-2.424-.4-3.838,0-5.858,1.212-11.918,2.626-17.978,3.636,2.222-7.272,4.444-14.948,5.252-22.422a25.09,25.09,0,0,0,0-8.686,16.66,16.66,0,0,0-2.02-5.252s-2.424-3.03-1.818-1.414l-.2-.2-.808-1.616.808.808c.2-1.212-3.232-3.434-3.232-3.434-5.05-5.05-11.918-8.888-18.786-5.05-4.242,2.424-7.676,6.464-10.5,10.5a35.571,35.571,0,0,0-2.828,4.646c-.808,1.616-2.02,6.868-3.232,7.676-1.01.808-4.04,1.01-5.454,1.818a23.715,23.715,0,0,0-5.454,3.03c-3.838,2.424-6.868,5.858-9.7,9.292-4.848,6.464-7.272,13.736-10.706,20.2-6.464,12.322.606,28.482,12.524,34.34A23.925,23.925,0,0,0,449.45-.4a26.136,26.136,0,0,0,11.514-5.252c3.03-2.222,9.7-6.262,10.908-9.7,0-.2-.4,0-1.01.606l5.858-6.868c.2.2-1.414,2.222-1.414,2.222,1.414.606,8.686-10.1,9.494-10.908,1.414-2.424,2.828-5.05,4.444-7.474,1.414-1.818,1.01-1.616,3.03-2.424-.2.2,2.424-.606,2.828-.606C497.324-41.208,520.958-42.824,515.1-50.3Zm-69.892,40.8h-.2c-16.766,2.424,2.626-33.128,3.03-35.148l-1.212,1.818c3.03-6.06,5.858-10.908,7.272-12.524,2.222,10.1,13.13,13.938,22.018,15.15C470.256-28.482,459.348-12.12,445.208-9.494ZM485-65.448c-1.414,5.656-2.626,13.13-5.656,18.18-1.01,2.02-.4,1.414-2.424,1.818-1.212.4-3.838,0-5.05-.2-2.222-.2-4.848-.606-6.464-2.02-2.828-2.424-2.424-6.262-2.02-9.7a42.131,42.131,0,0,1,2.626-9.9c.606-1.212,4.444-7.676,3.838-8.888-.2-.606-2.424,3.03-2.626,3.232a38.615,38.615,0,0,1,3.434-4.848c-.2,0,0-.2.2-.606v.2l.2-.4a.2.2,0,0,1,.2-.2c3.03-4.04,10.5-13.13,14.544-6.868C488.84-80.4,486.012-70.5,485-65.448Zm-13.938-13.13.2-.2A.2.2,0,0,1,471.064-78.578ZM573.882-49.086c-1.212-5.252-6.06,1.818-7.07,3.03L555.7-31.108,544.794-16.766l-5.858,7.474c-.606.808-5.05,6.464-4.646,6.464.4-.4,1.01-.4,1.616-1.01-3.03,3.232-14.14,13.332-16.16,10.908-1.616-2.02,2.828-10.5,3.434-12.524,2.222-5.858,4.242-11.918,6.666-17.574,2.626-5.858,5.656-11.716,8.08-17.574,2.424-6.262-1.212-8.484-7.07-9.9-2.626-.606-5.858-.606-8.888-1.01a.2.2,0,0,0,.2.2c2.626.4,6.464.606,9.7,1.616-4.848-1.414-10.908-.808-14.746-1.818-2.626-.606-4.242-.606-3.838-3.636.4-4.04,4.646-8.282,6.06-12.12,0,.2-1.414,3.838-1.212,3.838,1.01.4,2.626-5.252,2.626-6.06-.2-1.01-2.626-4.04-2.828-2.828l.4.606c-9.7-6.666-21.21,7.07-19.19,16.968.4,1.414,1.212,2.222,1.818,3.838.4,1.212,0,2.626,1.212,4.242,4.242,5.252,11.918,5.454,17.978,4.242-1.01,1.414-11.716,24.038-11.11,24.24l-1.414,5.05c-.2-.2.606-1.818.2-1.818-1.414-.2-4.242,11.514-4.444,12.524-.808,4.848-.606,9.09,1.414,13.534,1.212,2.828,2.626,5.252,5.252,6.868a11.041,11.041,0,0,0,8.282,1.818c1.01-.4,4.848-3.03,3.838-2.828l1.414-.606c-.2.2-.4.4-.4.606.606.2,9.9-7.272,11.11-8.08,6.464-5.454,11.716-12.12,16.564-18.786,4.848-6.868,9.9-13.736,14.544-20.6a70.738,70.738,0,0,0,5.858-9.9C572.468-42.824,574.488-46.258,573.882-49.086Zm-60.4,24.24a98.9,98.9,0,0,1,4.848-10.5c.4-.606,3.232-7.878,4.646-8.282-1.01.606-5.252,10.5-6.262,12.322l-3.838,8.888a123.072,123.072,0,0,0-5.656,15.15A106.935,106.935,0,0,1,513.484-24.846Zm-4.848,38.784a11.273,11.273,0,0,0,5.05,4.04,11.989,11.989,0,0,1-4.646-2.828c.2,0,.2.2.2.4a32.434,32.434,0,0,1-3.03-5.656,24.686,24.686,0,0,1-.606-7.676,23.752,23.752,0,0,1,.606-5.454v.2a35.562,35.562,0,0,0-.4,8.08V6.06a.626.626,0,0,1-.2-.4,1.563,1.563,0,0,0,.2.606v.2l.808,4.242L506.01,8.08c.4,1.212,1.414,3.434,2.424,5.656l-.2-.2c0,.2.2.4.4.606Zm5.656-66.66c1.01.808,2.828,1.01,4.646,1.212a8.021,8.021,0,0,1-4.04-1.414,9.12,9.12,0,0,1-1.414-1.414A2.494,2.494,0,0,0,514.292-52.722ZM535.5-36.966l-4.242,8.888,4.242-9.09ZM506.414-3.838c0,.2-.2.4-.2.606v-.2C506.212-3.636,506.414-3.636,506.414-3.838ZM535.7-37.572v.2h-.2Zm0,0v.2h-.2ZM506.616-6.464c0-.2.2-.4.2-.808C506.818-6.868,506.616-6.666,506.616-6.464Zm.808,18.584a.705.705,0,0,1,.2.4C507.626,12.322,507.424,12.322,507.424,12.12Zm6.262-66.862a.2.2,0,0,0-.2.2ZM641.956-50.3s.2.2,0-.2c-1.01-1.414-2.424-.4-3.838,0-5.858,1.212-11.918,2.626-17.978,3.636,2.222-7.272,4.444-14.948,5.252-22.422a25.09,25.09,0,0,0,0-8.686,16.659,16.659,0,0,0-2.02-5.252s-2.424-3.03-1.818-1.414l-.2-.2-.808-1.616.808.808c.2-1.212-3.232-3.434-3.232-3.434-5.05-5.05-11.918-8.888-18.786-5.05-4.242,2.424-7.676,6.464-10.5,10.5A35.571,35.571,0,0,0,586-78.982c-.808,1.616-2.02,6.868-3.232,7.676-1.01.808-4.04,1.01-5.454,1.818a23.715,23.715,0,0,0-5.454,3.03c-3.838,2.424-6.868,5.858-9.7,9.292-4.848,6.464-7.272,13.736-10.706,20.2-6.464,12.322.606,28.482,12.524,34.34A23.925,23.925,0,0,0,576.306-.4,26.136,26.136,0,0,0,587.82-5.656c3.03-2.222,9.7-6.262,10.908-9.7,0-.2-.4,0-1.01.606l5.858-6.868c.2.2-1.414,2.222-1.414,2.222,1.414.606,8.686-10.1,9.494-10.908,1.414-2.424,2.828-5.05,4.444-7.474,1.414-1.818,1.01-1.616,3.03-2.424-.2.2,2.424-.606,2.828-.606C624.18-41.208,647.814-42.824,641.956-50.3Zm-69.892,40.8h-.2c-16.766,2.424,2.626-33.128,3.03-35.148l-1.212,1.818c3.03-6.06,5.858-10.908,7.272-12.524,2.222,10.1,13.13,13.938,22.018,15.15C597.112-28.482,586.2-12.12,572.064-9.494Zm39.794-55.954c-1.414,5.656-2.626,13.13-5.656,18.18-1.01,2.02-.4,1.414-2.424,1.818-1.212.4-3.838,0-5.05-.2-2.222-.2-4.848-.606-6.464-2.02-2.828-2.424-2.424-6.262-2.02-9.7a42.131,42.131,0,0,1,2.626-9.9c.606-1.212,4.444-7.676,3.838-8.888-.2-.606-2.424,3.03-2.626,3.232a38.619,38.619,0,0,1,3.434-4.848c-.2,0,0-.2.2-.606v.2l.2-.4a.2.2,0,0,1,.2-.2c3.03-4.04,10.5-13.13,14.544-6.868C615.7-80.4,612.868-70.5,611.858-65.448ZM597.92-78.578l.2-.2A.2.2,0,0,1,597.92-78.578Z" transform="translate(506.005 729.981)" fill="#b9361a"/>
  </g>
</svg>
